<svg preserveAspectRatio="none" width="100%" height="100%" overflow="visible" style="display: block;" viewBox="0 0 355 430" fill="none" xmlns="http://www.w3.org/2000/svg">
<g id="Group">
<path id="Vector" d="M291.661 0C194.441 47.9446 97.2203 95.8966 0 143.849C0.0294429 152.807 0.051525 161.774 0.0809679 170.733C0.051525 170.747 0.0294429 170.762 0 170.777C0.0294429 180.739 0.0588857 190.702 0.0956893 200.664C0.0662464 200.679 0.0294429 200.694 0 200.708C0.0294429 209.667 0.051525 218.633 0.0809679 227.592C0.051525 227.607 0.0294429 227.622 0 227.636C0.125132 269.611 0.257625 311.593 0.390118 353.567C20.7499 370.071 41.1096 386.568 61.4767 403.072C68.7712 399.197 76.073 395.322 83.3675 391.447C100.768 404.295 118.169 417.151 135.57 430C155.318 400.12 175.06 370.24 194.809 340.352C248.203 312.779 301.598 285.206 355 257.634V45.7543C333.889 30.5029 312.772 15.2514 291.661 0ZM88.0194 367.954L82.0794 376.766H81.2476C81.0415 373.17 80.828 369.573 80.6219 365.976C80.0625 356.292 79.5031 346.615 78.9437 336.938C78.4947 329.239 78.053 321.533 77.604 313.834C77.5083 313.856 77.4127 313.856 77.3243 313.9L42.7584 331.049L19.8519 342.41L10.386 347.106V151.291L287.105 14.0135V209.828L148.12 278.775C132.574 301.842 117.035 324.903 101.49 347.97C96.9995 354.629 92.5095 361.295 88.0194 367.954Z" fill="var(--fill-0, #AE7AFF)"/>
<g id="Group_2">
<g id="Vector_2">
<path d="M43.0676 222.098V180.388L27.6542 188.006V168.623L80.7839 142.369V161.752L65.3264 169.385V211.096L43.0602 222.098H43.0676Z" fill="var(--fill-0, #AE7AFF)"/>
<path d="M43.0676 222.098V180.388L27.6542 188.006V168.623L80.7839 142.369V161.752L65.3264 169.385V211.096L43.0602 222.098H43.0676Z" fill="var(--fill-1, white)" fill-opacity="0.8"/>
</g>
<g id="Vector_3">
<path d="M88.7482 199.521V138.42L111.014 127.418V188.519L88.7482 199.521Z" fill="var(--fill-0, #AE7AFF)"/>
<path d="M88.7482 199.521V138.42L111.014 127.418V188.519L88.7482 199.521Z" fill="var(--fill-1, white)" fill-opacity="0.8"/>
</g>
<g id="Vector_4">
<path d="M160.883 163.876C158.174 159.305 155.937 156.031 154.185 154.045C152.433 152.06 150.733 150.866 149.091 150.471C147.45 150.075 145.448 150.375 143.078 151.379V172.681L120.811 183.684V122.583L143.078 111.58V131.864C145.22 130.612 147.03 129.015 148.517 127.088C150.004 125.162 151.498 122.473 153.015 119.03C154.524 115.587 156.437 110.518 158.749 103.837L183.238 91.7358C181.464 96.5852 179.911 100.687 178.571 104.035C177.231 107.383 175.87 110.459 174.486 113.258C173.102 116.056 171.814 118.364 170.629 120.166C169.444 121.975 168.097 123.652 166.58 125.213C165.064 126.766 163.54 128.084 162.002 129.161C160.464 130.238 158.623 131.344 156.481 132.487V137.512C158.933 136.413 161.06 135.607 162.863 135.087C164.659 134.567 166.418 134.326 168.126 134.362C169.841 134.399 171.365 134.721 172.704 135.336C174.044 135.952 175.457 136.985 176.944 138.442C178.431 139.9 179.874 141.644 181.287 143.687C182.7 145.731 184.305 148.31 186.101 151.423L160.883 163.883V163.876Z" fill="var(--fill-0, #AE7AFF)"/>
<path d="M160.883 163.876C158.174 159.305 155.937 156.031 154.185 154.045C152.433 152.06 150.733 150.866 149.091 150.471C147.45 150.075 145.448 150.375 143.078 151.379V172.681L120.811 183.684V122.583L143.078 111.58V131.864C145.22 130.612 147.03 129.015 148.517 127.088C150.004 125.162 151.498 122.473 153.015 119.03C154.524 115.587 156.437 110.518 158.749 103.837L183.238 91.7358C181.464 96.5852 179.911 100.687 178.571 104.035C177.231 107.383 175.87 110.459 174.486 113.258C173.102 116.056 171.814 118.364 170.629 120.166C169.444 121.975 168.097 123.652 166.58 125.213C165.064 126.766 163.54 128.084 162.002 129.161C160.464 130.238 158.623 131.344 156.481 132.487V137.512C158.933 136.413 161.06 135.607 162.863 135.087C164.659 134.567 166.418 134.326 168.126 134.362C169.841 134.399 171.365 134.721 172.704 135.336C174.044 135.952 175.457 136.985 176.944 138.442C178.431 139.9 179.874 141.644 181.287 143.687C182.7 145.731 184.305 148.31 186.101 151.423L160.883 163.883V163.876Z" fill="var(--fill-1, white)" fill-opacity="0.8"/>
</g>
<g id="Vector_5">
<path d="M186.786 130.67V117.206L217.355 102.101V115.565L186.786 130.67Z" fill="var(--fill-0, #AE7AFF)"/>
<path d="M186.786 130.67V117.206L217.355 102.101V115.565L186.786 130.67Z" fill="var(--fill-1, white)" fill-opacity="0.8"/>
</g>
<g id="Vector_6">
<path d="M43.0676 305.608V263.897L27.6542 271.515V252.132L80.7839 225.878V245.261L65.3264 252.894V294.605L43.0602 305.608H43.0676Z" fill="var(--fill-0, #AE7AFF)"/>
<path d="M43.0676 305.608V263.897L27.6542 271.515V252.132L80.7839 225.878V245.261L65.3264 252.894V294.605L43.0602 305.608H43.0676Z" fill="var(--fill-1, white)" fill-opacity="0.8"/>
</g>
<g id="Vector_7">
<path d="M102.064 276.453L79.032 287.836L100.224 216.267L126.722 203.169L147.914 253.795L124.882 265.179L122.784 259.311L104.161 268.512L102.064 276.453ZM107.886 251.678L119.104 246.133C118.044 242.705 117.315 239.694 116.896 237.086C116.483 234.478 116.218 231.028 116.101 226.743L110.838 229.343C110.69 233.79 110.433 237.511 110.043 240.514C109.653 243.518 108.939 247.239 107.879 251.678H107.886Z" fill="var(--fill-0, #AE7AFF)"/>
<path d="M102.064 276.453L79.032 287.836L100.224 216.267L126.722 203.169L147.914 253.795L124.882 265.179L122.784 259.311L104.161 268.512L102.064 276.453ZM107.886 251.678L119.104 246.133C118.044 242.705 117.315 239.694 116.896 237.086C116.483 234.478 116.218 231.028 116.101 226.743L110.838 229.343C110.69 233.79 110.433 237.511 110.043 240.514C109.653 243.518 108.939 247.239 107.879 251.678H107.886Z" fill="var(--fill-1, white)" fill-opacity="0.8"/>
</g>
<g id="Vector_8">
<path d="M154.163 250.711V189.61L176.429 178.608V220.318L197.532 209.887V229.27L154.163 250.697V250.711Z" fill="var(--fill-0, #AE7AFF)"/>
<path d="M154.163 250.711V189.61L176.429 178.608V220.318L197.532 209.887V229.27L154.163 250.697V250.711Z" fill="var(--fill-1, white)" fill-opacity="0.8"/>
</g>
<g id="Vector_9">
<path d="M245.443 205.609C242.734 201.038 240.497 197.763 238.745 195.778C236.993 193.793 235.293 192.599 233.651 192.203C232.01 191.808 230.008 192.108 227.638 193.112V214.414L205.371 225.417V164.316L227.638 153.313V173.597C229.779 172.344 231.59 170.747 233.077 168.821C234.564 166.894 236.058 164.206 237.574 160.763C239.083 157.32 240.997 152.251 243.308 145.57L267.798 133.468C266.024 138.318 264.471 142.42 263.131 145.768C261.791 149.115 260.429 152.192 259.046 154.99C257.662 157.789 256.374 160.096 255.196 161.898C254.011 163.708 252.664 165.385 251.148 166.945C249.631 168.498 248.108 169.817 246.569 170.894C245.031 171.971 243.191 173.077 241.049 174.22V179.245C243.5 178.146 245.627 177.34 247.43 176.82C249.226 176.3 250.986 176.058 252.693 176.095C254.408 176.132 255.932 176.454 257.272 177.069C258.611 177.684 260.025 178.717 261.512 180.175C262.998 181.633 264.441 183.376 265.854 185.42C267.268 187.464 268.872 190.042 270.668 193.156L245.45 205.616L245.443 205.609Z" fill="var(--fill-0, #AE7AFF)"/>
<path d="M245.443 205.609C242.734 201.038 240.497 197.763 238.745 195.778C236.993 193.793 235.293 192.599 233.651 192.203C232.01 191.808 230.008 192.108 227.638 193.112V214.414L205.371 225.417V164.316L227.638 153.313V173.597C229.779 172.344 231.59 170.747 233.077 168.821C234.564 166.894 236.058 164.206 237.574 160.763C239.083 157.32 240.997 152.251 243.308 145.57L267.798 133.468C266.024 138.318 264.471 142.42 263.131 145.768C261.791 149.115 260.429 152.192 259.046 154.99C257.662 157.789 256.374 160.096 255.196 161.898C254.011 163.708 252.664 165.385 251.148 166.945C249.631 168.498 248.108 169.817 246.569 170.894C245.031 171.971 243.191 173.077 241.049 174.22V179.245C243.5 178.146 245.627 177.34 247.43 176.82C249.226 176.3 250.986 176.058 252.693 176.095C254.408 176.132 255.932 176.454 257.272 177.069C258.611 177.684 260.025 178.717 261.512 180.175C262.998 181.633 264.441 183.376 265.854 185.42C267.268 187.464 268.872 190.042 270.668 193.156L245.45 205.616L245.443 205.609Z" fill="var(--fill-1, white)" fill-opacity="0.8"/>
</g>
</g>
</g>
</svg>
